<svg width="93" height="28" viewBox="0 0 93 28" fill="none" xmlns="http://www.w3.org/2000/svg">
<path d="M15.7376 0.39248C12.7718 0.326576 9.85082 1.05196 7.34407 2.47691C4.83732 3.90186 2.85737 5.96237 1.6546 8.39788C0.451838 10.8334 0.0802751 13.5345 0.586902 16.1597C1.09353 18.7848 2.45559 21.2161 4.50084 23.146C6.5461 25.076 9.18269 26.418 12.0772 27.0022C14.9717 27.5865 17.9941 27.3868 20.7623 26.4284C23.5304 25.47 25.9199 23.796 27.6286 21.618C29.3374 19.44 30.2886 16.8559 30.362 14.1924C30.4604 10.6208 28.9749 7.16041 26.2323 4.57242C23.4897 1.98442 19.7146 0.480854 15.7376 0.39248ZM15.022 26.3641C12.1443 26.3053 9.35841 25.4427 7.05185 23.8962C7.20112 22.1801 8.02854 20.5684 9.38479 19.352C10.741 18.1356 12.5368 17.3947 14.4479 17.2629C16.359 17.1311 18.2597 17.6171 19.8068 18.6333C21.354 19.6494 22.8143 22.5114 23.2536 24.1869L24.5001 23.3251C24.6169 24.4 22.2715 19.1033 20.5955 17.952C18.9195 16.8006 16.8503 16.2077 14.7414 16.2745C12.6326 16.3413 10.615 17.0636 9.03348 18.3181C7.45192 19.5726 6.40452 21.2814 6.07025 23.1525C3.64133 21.187 2.05974 18.5168 1.60244 15.6094C1.14515 12.7021 1.84128 9.74289 3.56895 7.25008C5.29662 4.75727 7.9457 2.88972 11.0523 1.97445C14.1589 1.05917 17.5251 1.15452 20.5613 2.2438C23.5975 3.33307 26.1103 5.34684 27.6596 7.93247C29.2089 10.5181 29.696 13.5108 29.0356 16.3865C28.3752 19.2622 26.6093 21.8376 24.0473 23.6617C21.4853 25.4859 18.2904 26.4425 15.022 26.3641Z" fill="#FFF7F7"/>
<path d="M15.7465 5.22033C14.7605 5.15275 13.7742 5.34928 12.9126 5.78506C12.0509 6.22084 11.3525 6.8763 10.9056 7.66855C10.4588 8.4608 10.2835 9.35427 10.4021 10.236C10.5206 11.1176 10.9277 11.948 11.5717 12.6219C12.2157 13.2958 13.0678 13.7831 14.0202 14.0222C14.9726 14.2612 15.9826 14.2413 16.9224 13.9648C17.8622 13.6884 18.6896 13.1679 19.2999 12.4691C19.9103 11.7704 20.2763 10.9248 20.3515 10.0393C20.4524 8.85184 20.0239 7.67703 19.1603 6.7733C18.2967 5.86957 17.0687 5.31095 15.7465 5.22033ZM15.0616 13.2794C14.2728 13.2254 13.5195 12.9624 12.8971 12.5239C12.2747 12.0854 11.811 11.4909 11.5647 10.8158C11.3185 10.1406 11.3007 9.41499 11.5136 8.73073C11.7266 8.04647 12.1607 7.43429 12.761 6.97159C13.3614 6.50889 14.101 6.21646 14.8864 6.13128C15.6719 6.0461 16.4678 6.17199 17.1735 6.49304C17.8793 6.81409 18.4632 7.31587 18.8514 7.93493C19.2396 8.554 19.4146 9.26253 19.3544 9.97095C19.2737 10.9209 18.7761 11.8032 17.971 12.4236C17.166 13.0441 16.1194 13.3519 15.0616 13.2794Z" fill="#FFF7F7"/>
<path d="M40.4091 12.2079L39.2045 12.5488C39.1288 12.348 39.017 12.1529 38.8693 11.9635C38.7254 11.7704 38.5284 11.6113 38.2784 11.4863C38.0284 11.3613 37.7083 11.2988 37.3182 11.2988C36.7841 11.2988 36.339 11.4219 35.983 11.6681C35.6307 11.9105 35.4545 12.2192 35.4545 12.5942C35.4545 12.9276 35.5758 13.1908 35.8182 13.384C36.0606 13.5772 36.4394 13.7382 36.9545 13.867L38.25 14.1851C39.0303 14.3745 39.6117 14.6643 39.9943 15.0545C40.3769 15.4408 40.5682 15.9389 40.5682 16.5488C40.5682 17.0488 40.4242 17.4957 40.1364 17.8897C39.8523 18.2836 39.4545 18.5942 38.9432 18.8215C38.4318 19.0488 37.8371 19.1624 37.1591 19.1624C36.2689 19.1624 35.5322 18.9692 34.9489 18.5829C34.3655 18.1965 33.9962 17.6321 33.8409 16.8897L35.1136 16.5715C35.2348 17.0412 35.464 17.3935 35.8011 17.6283C36.142 17.8632 36.5871 17.9806 37.1364 17.9806C37.7614 17.9806 38.2576 17.848 38.625 17.5829C38.9962 17.3139 39.1818 16.992 39.1818 16.617C39.1818 16.3139 39.0758 16.0601 38.8636 15.8556C38.6515 15.6473 38.3258 15.492 37.8864 15.3897L36.4318 15.0488C35.6326 14.8594 35.0455 14.5658 34.6705 14.1681C34.2992 13.7666 34.1136 13.2647 34.1136 12.6624C34.1136 12.17 34.2519 11.7344 34.5284 11.3556C34.8087 10.9768 35.1894 10.6795 35.6705 10.4635C36.1553 10.2476 36.7045 10.1397 37.3182 10.1397C38.1818 10.1397 38.8598 10.3291 39.3523 10.7079C39.8485 11.0867 40.2008 11.5867 40.4091 12.2079ZM42.5866 18.9806V10.2533H43.9276V18.9806H42.5866ZM43.2685 8.79877C43.0071 8.79877 42.7817 8.70976 42.5923 8.53173C42.4067 8.3537 42.3139 8.13968 42.3139 7.88968C42.3139 7.63968 42.4067 7.42567 42.5923 7.24764C42.7817 7.06961 43.0071 6.98059 43.2685 6.98059C43.5298 6.98059 43.7533 7.06961 43.9389 7.24764C44.1283 7.42567 44.223 7.63968 44.223 7.88968C44.223 8.13968 44.1283 8.3537 43.9389 8.53173C43.7533 8.70976 43.5298 8.79877 43.2685 8.79877ZM49.9062 22.4351C49.2585 22.4351 48.7017 22.3518 48.2358 22.1851C47.7699 22.0223 47.3816 21.8063 47.071 21.5374C46.7642 21.2723 46.5199 20.9882 46.3381 20.6851L47.4062 19.9351C47.5275 20.0942 47.6809 20.276 47.8665 20.4806C48.0521 20.6889 48.3059 20.8688 48.6278 21.0204C48.9536 21.1757 49.3797 21.2533 49.9062 21.2533C50.6108 21.2533 51.1922 21.0829 51.6506 20.742C52.1089 20.401 52.3381 19.867 52.3381 19.1397V17.367H52.2244C52.1259 17.526 51.9858 17.723 51.804 17.9579C51.6259 18.1889 51.3684 18.3954 51.0312 18.5772C50.6979 18.7552 50.2472 18.8442 49.679 18.8442C48.9744 18.8442 48.3419 18.6776 47.7812 18.3442C47.2244 18.0109 46.7831 17.526 46.4574 16.8897C46.1354 16.2533 45.9744 15.4806 45.9744 14.5715C45.9744 13.6776 46.1316 12.8992 46.446 12.2363C46.7604 11.5696 47.1979 11.0545 47.7585 10.6908C48.3191 10.3234 48.9669 10.1397 49.7017 10.1397C50.2699 10.1397 50.7206 10.2344 51.054 10.4238C51.3911 10.6094 51.6487 10.8215 51.8267 11.0601C52.0085 11.295 52.1487 11.4882 52.2472 11.6397H52.3835V10.2533H53.679V19.2306C53.679 19.9806 53.5085 20.5904 53.1676 21.0601C52.8305 21.5336 52.3759 21.8802 51.804 22.0999C51.2358 22.3234 50.6032 22.4351 49.9062 22.4351ZM49.8608 17.6397C50.3987 17.6397 50.8532 17.5166 51.2244 17.2704C51.5956 17.0242 51.8778 16.67 52.071 16.2079C52.2642 15.7457 52.3608 15.1927 52.3608 14.5488C52.3608 13.92 52.2661 13.3651 52.0767 12.884C51.8873 12.4029 51.607 12.026 51.2358 11.7533C50.8646 11.4806 50.4063 11.3442 49.8608 11.3442C49.2926 11.3442 48.8191 11.4882 48.4403 11.776C48.0653 12.0639 47.7831 12.4503 47.5938 12.9351C47.4081 13.42 47.3153 13.9579 47.3153 14.5488C47.3153 15.1548 47.41 15.6908 47.5994 16.1567C47.7926 16.6188 48.0767 16.9825 48.4517 17.2476C48.8305 17.509 49.3002 17.6397 49.8608 17.6397ZM57.4744 13.7306V18.9806H56.1335V10.2533H57.429V11.617H57.5426C57.7472 11.1738 58.0578 10.8177 58.4744 10.5488C58.8911 10.276 59.429 10.1397 60.0881 10.1397C60.679 10.1397 61.196 10.2609 61.6392 10.5033C62.0824 10.742 62.4271 11.1056 62.6733 11.5942C62.9195 12.0791 63.0426 12.6927 63.0426 13.4351V18.9806H61.7017V13.526C61.7017 12.8404 61.5237 12.3063 61.1676 11.9238C60.8116 11.5374 60.3229 11.3442 59.7017 11.3442C59.2737 11.3442 58.8911 11.437 58.554 11.6226C58.2206 11.8082 57.9574 12.0791 57.7642 12.4351C57.571 12.7912 57.4744 13.223 57.4744 13.7306ZM69.9929 18.9806V10.2533H71.3338V18.9806H69.9929ZM70.6747 8.79877C70.4134 8.79877 70.188 8.70976 69.9986 8.53173C69.813 8.3537 69.7202 8.13968 69.7202 7.88968C69.7202 7.63968 69.813 7.42567 69.9986 7.24764C70.188 7.06961 70.4134 6.98059 70.6747 6.98059C70.9361 6.98059 71.1596 7.06961 71.3452 7.24764C71.5346 7.42567 71.6293 7.63968 71.6293 7.88968C71.6293 8.13968 71.5346 8.3537 71.3452 8.53173C71.1596 8.70976 70.9361 8.79877 70.6747 8.79877ZM75.1307 13.7306V18.9806H73.7898V10.2533H75.0852V11.617H75.1989C75.4034 11.1738 75.714 10.8177 76.1307 10.5488C76.5473 10.276 77.0852 10.1397 77.7443 10.1397C78.3352 10.1397 78.8523 10.2609 79.2955 10.5033C79.7386 10.742 80.0833 11.1056 80.3295 11.5942C80.5758 12.0791 80.6989 12.6927 80.6989 13.4351V18.9806H79.358V13.526C79.358 12.8404 79.1799 12.3063 78.8239 11.9238C78.4678 11.5374 77.9792 11.3442 77.358 11.3442C76.9299 11.3442 76.5473 11.437 76.2102 11.6226C75.8769 11.8082 75.6136 12.0791 75.4205 12.4351C75.2273 12.7912 75.1307 13.223 75.1307 13.7306Z" fill="white"/>
</svg>
