 <svg  version="1.0" xmlns="http://www.w3.org/2000/svg"  width="300.000000pt" height="300.000000pt" viewBox="0 0 300.000000 300.000000"  preserveAspectRatio="xMidYMid meet">  <g transform="translate(0.000000,300.000000) scale(0.050000,-0.050000)" fill="#0fa3ff" stroke="none"> <path d="M2733 4862 c-633 -209 -807 -975 -330 -1447 75 -74 125 -135 111 -135 -42 0 -317 -139 -418 -211 l-95 -69 -141 91 c-77 50 -168 101 -201 112 l-60 21 82 82 c429 428 125 1161 -481 1161 -594 0 -899 -707 -493 -1142 l90 -96 -143 -74 c-376 -194 -618 -562 -648 -986 l-12 -169 728 0 728 0 1 -215 c2 -311 96 -485 332 -616 l107 -59 1100 0 1100 0 92 46 c241 118 345 300 355 619 l6 225 732 0 731 0 -13 165 c-33 443 -277 809 -668 1002 l-125 62 79 80 c476 489 15 1310 -642 1142 -519 -133 -697 -780 -316 -1150 l80 -77 -72 -24 c-40 -14 -131 -64 -202 -113 l-129 -88 -149 99 c-82 55 -203 120 -269 144 -104 37 -157 78 -103 78 49 0 234 220 297 352 319 671 -339 1422 -1041 1190z m541 -212 c648 -294 438 -1275 -274 -1279 -790 -4 -941 1106 -179 1318 140 39 315 24 453 -39z m-1852 -426 c353 -184 353 -684 0 -868 -367 -192 -788 134 -701 541 67 311 418 475 701 327z m3549 27 c499 -209 362 -953 -175 -951 -421 2 -646 499 -369 815 127 144 375 206 544 136z m-1535 -1159 c509 -190 831 -589 906 -1127 47 -330 -26 -523 -242 -638 -98 -52 -1976 -68 -2148 -18 -285 82 -386 395 -273 839 193 752 1044 1209 1757 944z m-1975 -24 c125 -37 267 -106 338 -163 l49 -40 -59 -77 c-111 -144 -203 -308 -250 -448 l-48 -140 -646 0 c-733 0 -672 -18 -613 181 150 512 729 835 1229 687z m3588 1 c376 -97 751 -519 751 -843 0 -22 -120 -26 -653 -21 l-653 5 -34 100 c-50 145 -123 283 -226 423 l-91 123 44 38 c199 176 570 252 862 175z"/> </g> </svg> 