<svg width="105" height="36" viewBox="0 0 105 36" fill="none" xmlns="http://www.w3.org/2000/svg">
<rect width="104" height="35.9223" rx="17.9612" fill="#131212"/>
<path d="M27.7376 5.39248C24.7718 5.32658 21.8508 6.05196 19.3441 7.47691C16.8373 8.90186 14.8574 10.9624 13.6546 13.3979C12.4518 15.8334 12.0803 18.5345 12.5869 21.1597C13.0935 23.7848 14.4556 26.2161 16.5008 28.146C18.5461 30.076 21.1827 31.418 24.0772 32.0022C26.9717 32.5865 29.9941 32.3868 32.7623 31.4284C35.5304 30.47 37.9199 28.796 39.6286 26.618C41.3374 24.44 42.2886 21.8559 42.362 19.1924C42.4604 15.6208 40.9749 12.1604 38.2323 9.57242C35.4897 6.98442 31.7146 5.48085 27.7376 5.39248ZM27.022 31.3641C24.1443 31.3053 21.3584 30.4427 19.0518 28.8962C19.2011 27.1801 20.0285 25.5684 21.3848 24.352C22.741 23.1356 24.5368 22.3947 26.4479 22.2629C28.359 22.1311 30.2597 22.6171 31.8068 23.6333C33.354 24.6494 34.8143 27.5114 35.2536 29.1869L36.5001 28.3251C36.6169 29.4 34.2715 24.1033 32.5955 22.952C30.9195 21.8006 28.8503 21.2077 26.7414 21.2745C24.6326 21.3413 22.615 22.0636 21.0335 23.3181C19.4519 24.5726 18.4045 26.2814 18.0702 28.1525C15.6413 26.187 14.0597 23.5168 13.6024 20.6094C13.1451 17.7021 13.8413 14.7429 15.569 12.2501C17.2966 9.75727 19.9457 7.88972 23.0523 6.97445C26.1589 6.05917 29.5251 6.15452 32.5613 7.2438C35.5975 8.33307 38.1103 10.3468 39.6596 12.9325C41.2089 15.5181 41.696 18.5108 41.0356 21.3865C40.3752 24.2622 38.6093 26.8376 36.0473 28.6617C33.4853 30.4859 30.2904 31.4425 27.022 31.3641Z" fill="#FFF7F7"/>
<path d="M27.7465 10.2203C26.7605 10.1528 25.7742 10.3493 24.9126 10.7851C24.0509 11.2208 23.3525 11.8763 22.9056 12.6685C22.4588 13.4608 22.2835 14.3543 22.4021 15.236C22.5206 16.1176 22.9277 16.948 23.5717 17.6219C24.2157 18.2958 25.0678 18.7831 26.0202 19.0222C26.9726 19.2612 27.9826 19.2413 28.9224 18.9648C29.8622 18.6884 30.6896 18.1679 31.2999 17.4691C31.9103 16.7704 32.2763 15.9248 32.3515 15.0393C32.4524 13.8518 32.0239 12.677 31.1603 11.7733C30.2967 10.8696 29.0687 10.311 27.7465 10.2203ZM27.0616 18.2794C26.2728 18.2254 25.5195 17.9624 24.8971 17.5239C24.2747 17.0854 23.811 16.4909 23.5647 15.8158C23.3185 15.1406 23.3007 14.415 23.5136 13.7307C23.7266 13.0465 24.1607 12.4343 24.761 11.9716C25.3614 11.5089 26.101 11.2165 26.8864 11.1313C27.6719 11.0461 28.4678 11.172 29.1735 11.493C29.8793 11.8141 30.4632 12.3159 30.8514 12.9349C31.2396 13.554 31.4146 14.2625 31.3544 14.971C31.2737 15.9209 30.7761 16.8032 29.971 17.4236C29.166 18.0441 28.1194 18.3519 27.0616 18.2794Z" fill="#FFF7F7"/>
<path d="M52.4091 17.2079L51.2045 17.5488C51.1288 17.348 51.017 17.1529 50.8693 16.9635C50.7254 16.7704 50.5284 16.6113 50.2784 16.4863C50.0284 16.3613 49.7083 16.2988 49.3182 16.2988C48.7841 16.2988 48.339 16.4219 47.983 16.6681C47.6307 16.9105 47.4545 17.2192 47.4545 17.5942C47.4545 17.9276 47.5758 18.1908 47.8182 18.384C48.0606 18.5772 48.4394 18.7382 48.9545 18.867L50.25 19.1851C51.0303 19.3745 51.6117 19.6643 51.9943 20.0545C52.3769 20.4408 52.5682 20.9389 52.5682 21.5488C52.5682 22.0488 52.4242 22.4957 52.1364 22.8897C51.8523 23.2836 51.4545 23.5942 50.9432 23.8215C50.4318 24.0488 49.8371 24.1624 49.1591 24.1624C48.2689 24.1624 47.5322 23.9692 46.9489 23.5829C46.3655 23.1965 45.9962 22.6321 45.8409 21.8897L47.1136 21.5715C47.2348 22.0412 47.464 22.3935 47.8011 22.6283C48.142 22.8632 48.5871 22.9806 49.1364 22.9806C49.7614 22.9806 50.2576 22.848 50.625 22.5829C50.9962 22.3139 51.1818 21.992 51.1818 21.617C51.1818 21.3139 51.0758 21.0601 50.8636 20.8556C50.6515 20.6473 50.3258 20.492 49.8864 20.3897L48.4318 20.0488C47.6326 19.8594 47.0455 19.5658 46.6705 19.1681C46.2992 18.7666 46.1136 18.2647 46.1136 17.6624C46.1136 17.17 46.2519 16.7344 46.5284 16.3556C46.8087 15.9768 47.1894 15.6795 47.6705 15.4635C48.1553 15.2476 48.7045 15.1397 49.3182 15.1397C50.1818 15.1397 50.8598 15.3291 51.3523 15.7079C51.8485 16.0867 52.2008 16.5867 52.4091 17.2079ZM54.5866 23.9806V15.2533H55.9276V23.9806H54.5866ZM55.2685 13.7988C55.0071 13.7988 54.7817 13.7098 54.5923 13.5317C54.4067 13.3537 54.3139 13.1397 54.3139 12.8897C54.3139 12.6397 54.4067 12.4257 54.5923 12.2476C54.7817 12.0696 55.0071 11.9806 55.2685 11.9806C55.5298 11.9806 55.7533 12.0696 55.9389 12.2476C56.1283 12.4257 56.223 12.6397 56.223 12.8897C56.223 13.1397 56.1283 13.3537 55.9389 13.5317C55.7533 13.7098 55.5298 13.7988 55.2685 13.7988ZM61.9062 27.4351C61.2585 27.4351 60.7017 27.3518 60.2358 27.1851C59.7699 27.0223 59.3816 26.8063 59.071 26.5374C58.7642 26.2723 58.5199 25.9882 58.3381 25.6851L59.4062 24.9351C59.5275 25.0942 59.6809 25.276 59.8665 25.4806C60.0521 25.6889 60.3059 25.8688 60.6278 26.0204C60.9536 26.1757 61.3797 26.2533 61.9062 26.2533C62.6108 26.2533 63.1922 26.0829 63.6506 25.742C64.1089 25.401 64.3381 24.867 64.3381 24.1397V22.367H64.2244C64.1259 22.526 63.9858 22.723 63.804 22.9579C63.6259 23.1889 63.3684 23.3954 63.0312 23.5772C62.6979 23.7552 62.2472 23.8442 61.679 23.8442C60.9744 23.8442 60.3419 23.6776 59.7812 23.3442C59.2244 23.0109 58.7831 22.526 58.4574 21.8897C58.1354 21.2533 57.9744 20.4806 57.9744 19.5715C57.9744 18.6776 58.1316 17.8992 58.446 17.2363C58.7604 16.5696 59.1979 16.0545 59.7585 15.6908C60.3191 15.3234 60.9669 15.1397 61.7017 15.1397C62.2699 15.1397 62.7206 15.2344 63.054 15.4238C63.3911 15.6094 63.6487 15.8215 63.8267 16.0601C64.0085 16.295 64.1487 16.4882 64.2472 16.6397H64.3835V15.2533H65.679V24.2306C65.679 24.9806 65.5085 25.5904 65.1676 26.0601C64.8305 26.5336 64.3759 26.8802 63.804 27.0999C63.2358 27.3234 62.6032 27.4351 61.9062 27.4351ZM61.8608 22.6397C62.3987 22.6397 62.8532 22.5166 63.2244 22.2704C63.5956 22.0242 63.8778 21.67 64.071 21.2079C64.2642 20.7457 64.3608 20.1927 64.3608 19.5488C64.3608 18.92 64.2661 18.3651 64.0767 17.884C63.8873 17.4029 63.607 17.026 63.2358 16.7533C62.8646 16.4806 62.4063 16.3442 61.8608 16.3442C61.2926 16.3442 60.8191 16.4882 60.4403 16.776C60.0653 17.0639 59.7831 17.4503 59.5938 17.9351C59.4081 18.42 59.3153 18.9579 59.3153 19.5488C59.3153 20.1548 59.41 20.6908 59.5994 21.1567C59.7926 21.6188 60.0767 21.9825 60.4517 22.2476C60.8305 22.509 61.3002 22.6397 61.8608 22.6397ZM69.4744 18.7306V23.9806H68.1335V15.2533H69.429V16.617H69.5426C69.7472 16.1738 70.0578 15.8177 70.4744 15.5488C70.8911 15.276 71.429 15.1397 72.0881 15.1397C72.679 15.1397 73.196 15.2609 73.6392 15.5033C74.0824 15.742 74.4271 16.1056 74.6733 16.5942C74.9195 17.0791 75.0426 17.6927 75.0426 18.4351V23.9806H73.7017V18.526C73.7017 17.8404 73.5237 17.3063 73.1676 16.9238C72.8116 16.5374 72.3229 16.3442 71.7017 16.3442C71.2737 16.3442 70.8911 16.437 70.554 16.6226C70.2206 16.8082 69.9574 17.0791 69.7642 17.4351C69.571 17.7912 69.4744 18.223 69.4744 18.7306ZM81.9929 23.9806V15.2533H83.3338V23.9806H81.9929ZM82.6747 13.7988C82.4134 13.7988 82.188 13.7098 81.9986 13.5317C81.813 13.3537 81.7202 13.1397 81.7202 12.8897C81.7202 12.6397 81.813 12.4257 81.9986 12.2476C82.188 12.0696 82.4134 11.9806 82.6747 11.9806C82.9361 11.9806 83.1596 12.0696 83.3452 12.2476C83.5346 12.4257 83.6293 12.6397 83.6293 12.8897C83.6293 13.1397 83.5346 13.3537 83.3452 13.5317C83.1596 13.7098 82.9361 13.7988 82.6747 13.7988ZM87.1307 18.7306V23.9806H85.7898V15.2533H87.0852V16.617H87.1989C87.4034 16.1738 87.714 15.8177 88.1307 15.5488C88.5473 15.276 89.0852 15.1397 89.7443 15.1397C90.3352 15.1397 90.8523 15.2609 91.2955 15.5033C91.7386 15.742 92.0833 16.1056 92.3295 16.5942C92.5758 17.0791 92.6989 17.6927 92.6989 18.4351V23.9806H91.358V18.526C91.358 17.8404 91.1799 17.3063 90.8239 16.9238C90.4678 16.5374 89.9792 16.3442 89.358 16.3442C88.9299 16.3442 88.5473 16.437 88.2102 16.6226C87.8769 16.8082 87.6136 17.0791 87.4205 17.4351C87.2273 17.7912 87.1307 18.223 87.1307 18.7306Z" fill="white"/>
</svg>
